<svg id="Layer_1" data-name="Layer 1" xmlns="http://www.w3.org/2000/svg" viewBox="0 0 125 589"><defs><style>.cls-1{fill:none;stroke:#fff;stroke-linecap:round;stroke-miterlimit:10;stroke-width:20px;}.cls-2{fill:#fff;}</style></defs><rect width="125" height="589"/><rect width="125" height="589"/><path class="cls-1" d="M68.78,416.42c13.65-14.06,19.5-33.92-.5-63.92-28.18-42.26-22.3-90.7,5-118"/><path class="cls-2" d="M58,204.94h29.1a3.24,3.24,0,0,1,3.08,1.88,2.94,2.94,0,0,1-.73,3.6,4.75,4.75,0,0,1-2.64.89c-11.54.06-23.08,0-34.62,0-.85,0-1.69,0-2.54.08a7,7,0,0,1-5.35-2.27c-3.23-3-6.39-6.19-9.54-9.34-8.25-8.23-16.52-16.45-24.69-24.77A19.73,19.73,0,0,1,7,170.32c-.87-1.68-.21-3.22,1.06-4.49q8.76-8.78,17.54-17.54l34.34-34.4c3.62-3.63,7.31-7.19,10.86-10.9a9,9,0,0,1,13,0c10.51,10.71,21.19,21.26,31.79,31.89a8.51,8.51,0,0,1-.24,12.12q-10.5,10.55-21,21.06L58.7,203.7c-.29.29-.55.6-.82.91Zm53.88-64.16a19.58,19.58,0,0,0-1.67-2.23Q94.8,123.07,79.33,107.62c-1.49-1.49-2.5-1.48-4,0Q54.16,128.83,32.93,150c-.83.83-.8,1.25,0,2.08Q49.55,168.6,66,185.2c.81.82,1.19.83,2,0q15.94-16,32-32c3.47-3.47,7-6.93,10.42-10.42A18.26,18.26,0,0,0,111.89,140.78ZM48.63,204a11.42,11.42,0,0,0,1.76-1.19q5-5,10-10c2.32-2.34,2.64-1.68-.06-4.39Q49.91,178,39.49,167.63c-3.72-3.71-7.45-7.4-11.16-11.12-.64-.64-1.11-.79-1.86,0-3.66,3.75-7.4,7.44-11.09,11.17-1.37,1.38-1.37,2.28,0,3.68,3.48,3.53,7,7,10.49,10.53q10.36,10.38,20.74,20.74A15,15,0,0,0,48.63,204Z"/></svg>