<svg id="Layer_1" data-name="Layer 1" xmlns="http://www.w3.org/2000/svg" viewBox="0 0 125 589"><defs><style>.cls-1{fill:none;stroke:#fff;stroke-linecap:round;stroke-miterlimit:10;stroke-width:3px;}.cls-2{fill:#fff;}</style></defs><rect width="125" height="589"/><rect width="125" height="589"/><path class="cls-1" d="M49.78,416.42c13.65-14.06,19.5-33.92-.5-63.92-28.18-42.26-22.3-90.7,5-118"/><path class="cls-2" d="M60.23,208H75.64a1.7,1.7,0,0,1,1.63,1,1.54,1.54,0,0,1-.38,1.9,2.53,2.53,0,0,1-1.4.47c-6.11,0-12.22,0-18.33,0-.45,0-.9,0-1.35,0a3.69,3.69,0,0,1-2.83-1.2c-1.71-1.61-3.39-3.28-5-4.94-4.37-4.36-8.75-8.71-13.08-13.12a10.59,10.59,0,0,1-1.64-2.5,2,2,0,0,1,.56-2.38L43.06,178l18.18-18.22C63.16,157.86,65.12,156,67,154a4.75,4.75,0,0,1,6.88,0c5.57,5.68,11.22,11.27,16.84,16.9a4.49,4.49,0,0,1-.13,6.41Q85,182.9,79.45,188.46,70,197.9,60.6,207.34c-.15.15-.29.32-.44.48Zm28.53-34a10.34,10.34,0,0,0-.88-1.18q-8.16-8.21-16.36-16.38c-.78-.79-1.32-.78-2.11,0Q58.19,167.7,47,178.92c-.44.44-.42.66,0,1.1q8.79,8.73,17.51,17.53c.43.43.64.43,1.06,0q8.44-8.49,16.92-17c1.84-1.84,3.69-3.67,5.52-5.52A8.35,8.35,0,0,0,88.76,174ZM55.27,207.51a6.23,6.23,0,0,0,.93-.63c1.77-1.75,3.52-3.51,5.27-5.28,1.23-1.24,1.4-.89,0-2.32q-5.49-5.53-11-11c-2-2-3.94-3.92-5.9-5.89-.34-.34-.59-.42-1,0-1.94,2-3.92,3.94-5.87,5.92-.73.73-.73,1.2,0,2q2.76,2.79,5.55,5.57,5.49,5.5,11,11A7.72,7.72,0,0,0,55.27,207.51Z"/></svg>