<svg id="Layer_1" data-name="Layer 1" xmlns="http://www.w3.org/2000/svg" viewBox="0 0 125 589"><defs><style>.cls-1{fill:none;stroke:#000;stroke-linecap:round;stroke-miterlimit:10;stroke-width:11px;}</style></defs><path d="M78,428.27c-.79,20-1.8,40-2.69,60-.68,15.48-1.29,31-2,46.44-.3,6.37-.63,12.75-1.37,19.07A8.1,8.1,0,0,1,63.51,561c-5.28-.25-7.82-3.69-8.18-8-.59-7.1-.95-14.22-1.32-21.33Q52.56,503,51.18,474.33q-1-20.19-1.81-40.38c-.58-14.22-1.28-28.44-1.52-42.67-.2-11.9.18-23.82.3-35.73,0-1.94.85-2.9,2.79-3.73,8.19-3.46,16.4-4,24.65-.67,1.36.55,3,2.5,3,3.86.27,8.65.14,17.32.14,26C79,381,78.65,412.52,78,428.27Z"/><path d="M92,213a25.36,25.36,0,0,1,4.5.55,3.91,3.91,0,0,1,2.22,2c.17.4-.92,1.56-1.67,2.05-2.22,1.46-4.53,2.78-6.84,4.11-8,4.61-9.36,12-8.65,20.33.57,6.66,1.32,13.31,1.54,20,.09,2.56-.82,5.24-1.66,7.74-1.84,5.45-6,8.14-11.56,7.78a86.41,86.41,0,0,1-16-2.23c-8.22-2.08-10.42-9.14-11.58-16.36a55.2,55.2,0,0,1-.33-12c.5-8.88,5.12-15.8,11.69-21.26C64,217.11,79.63,212.85,92,213Z"/><path d="M48.36,341.64c1.14-17.27,2.21-34.55,3.47-51.82.39-5.25,5.22-9.12,10.5-9.39A11.09,11.09,0,0,1,73.74,290c1.23,14.08,2.36,28.18,3.49,42.28.33,4.17.22,8.41.93,12.52.54,3.08-.77,2.3-2.38,1.74-7.81-2.73-15.58-3.28-23.44,0-3.92,1.62-4,1.41-3.84-2.9,0-.65,0-1.3,0-2Z"/><path class="cls-1" d="M65.78,199.42c13.65-14.06,19.5-33.92-.5-63.92-28.18-42.26-22.3-90.7,5-118"/></svg>