<svg id="Layer_1" data-name="Layer 1" xmlns="http://www.w3.org/2000/svg" xmlns:xlink="http://www.w3.org/1999/xlink" viewBox="0 0 336 309"><defs><style>.cls-1{fill:url(#Spectrum_);}</style><linearGradient id="Spectrum_" x1="73.9" y1="161.4" x2="546.33" y2="78.7" gradientUnits="userSpaceOnUse"><stop offset="0" stop-color="#00a8de"/><stop offset="0.2" stop-color="#333391"/><stop offset="0.4" stop-color="#e91388"/><stop offset="0.6" stop-color="#eb2d2e"/><stop offset="0.8" stop-color="#fde92b"/><stop offset="1" stop-color="#009e54"/></linearGradient></defs><path d="M136.41,181.28l.75-.19,2.05-2.05,2.42-5.22.94-1.31.93-2.79.56-.38,1.3-3.91.38-.19.18-1.12.56-.56,1.31-4.28.56-.56,1.86-5.41.56-.37,1.49-4.29.93-1.12.56-2.42,1.12-3.17.56-.37.19-1.12.93-1.31,1.49-4.85,1.12-3v-.74l.93-.94.75-2.61,2.23-5.4.94-1.31,1.11-2.79V116.4l2.61-5.6.38-1.49,1.49-2.42,1.12-2.8,1.68-2.42,2-2,1.49-2.43,4.66-3.91L184.14,91l.75-.93h.93v-.56h.74L189,88.43l6.15-1.49,2.8.56,1.86,1.31,1.49,4.28.93,3-.55,3L200,101.3l-4.48,4.1-3.91,4.85-.38,1.3L189.55,114l-.75,1.87L187.68,117l-1.86,5.59v.75h-.56l-.19,2.23L184,127.77l-1.12,1.12v.74h-.38v.94h-.56v.74h-.37L180,136.72l-.56,1.49-.56.37-.56,3-2.24,4.66h-.37l-1.86,5.22-2.43,6-.18,1.49-2.43,5-2.23,5.4-2.43,5.6-2.05,5.4-1.49,1.87-.19,1.12-1.11,1.12-.94,1.86v.74l-.93.94v.74l-1.12.94-1.49,2.61L154.5,194l.19,1.31,1.67,2.61,5,3.17.56.74,1.86.75,1.3.93,5,1.49,2.61.75,5.78.56,6-.75,2.24-.56.75-.56,3.72-.74,5-3,1.3-.18,4.66-3.54,4.29-4.48,3.92-3.54.37-1.12,2-1.86.56-1.87L216,180.9l2.61-3.54.56-.37.19-1.31,2.05-4.66,1.12-1.12.93-2.79.93-.94.75-2.79,3-5.41.19-3h.37l.56-3,1.68-3.73.74-6,.75-5.59.56-6.15.55-5.78-.93-6v-6.15l-.37-2.8-1.49-6-2.42-5.41-2.8-5.59-1.31-2-3.72-3.73-2.43-1.49-3.54-3.17-1.31-.38v-.56h-.93v-.37h-.74v-.37l-5-1.68-6-1.86-5-.75-6.34-.19-6.33.38L177.62,78l-5.78,1.68-5.41,2.42-4.85,2.8-5.4,3-3.73,4.29-3.17,3.92L145.92,100l-.18,1.49-.75.38-.75,1.86-.74.93-.37,1.49-.94.75-.37,1.3-.93,1.12-.37,2.24-.38.37v1.49l-1.86,5.41-.37,6,.55,5.78,1.68,5.78.94,2.79v2.8l-1.68,2.42-4.85,3.36-1.49,1.49-1.12.19-.93.74-3.17.75L126,150l-.93-1.31-.74-.19-.56-2.05-1.49-2.79-.19-1.31-1.31-1.86-.55-3-.57-6.52-.37-5.78V119l1.12-5.6,1.31-6,1.11-5.22h.57v-.75h.37v-.93h.37l.75-2.61,2.23-4.1.56-.56.19-1.12,2-2.42.93-1.87,1.31-.37L134,85.26l1.12-.74v-.75l1.49-1.68.56-1.3,2.24-2.05,1.3-.37L145,74.08l2.42-2,5-3,5.4-2.61.94-.93,5.4-1.86,1.31-.19v-.37l5.78-2,5.78-1.12,5.78-.75,5.22-.74,6.52-.19,6,.56h1.3l1.49.56,3,.19,5.22,1.67,5,1.31.37.56,2.05.56.56.56,3.36.56v.37L227,67l.93,1.12,1.31.37,1.3,1.87,1.31.56.74.93,1.12.19,1.12,1.67,2.61,1.68,1.12,2.05,3.36,4.1L244,83.77l3.35,5v.74h.56v.93h.37v.75l2,4.66,2.24,5.59.75,5.78.93,2.43.56,5.78.18,6.15.38,2.79-.75,3,.37,5.78v3.17l-.74,4.84-.56.38-.56,6-1.49,5.78L250,159.09l-1.68,5.59-2.05,5.6-1.49,2.79-2,5.22-.93,1.12-.19,1.49-1.68,2.43v.93l-.74.19-.19.93h-.37v.93h-.37v.74l-.75.38-.37,1.12-.75.37-.56,1.3-2.79,3-.19,1.3-.93.56-.19,1.31-1.12.93-.74.19-.19,1.11L228,199.92v.56L224,205.14l-4.29,4.1-4.66,3.54-2.61,1.49-.93,1.12h-.93l-.38.93h-.74l-.94,1.12-2.61,1.5-5.4,2.05-6.16,1.86-5.59,1.86h-2.61l-1.86.56h-1.68l-.19-.56-3-.37-6,.75-.37-.38-6-1.11-3-.94-.37-.56-3-.56-5-2.79-1.68-1.31-2.23-.56-.75-1.11-1.12-.19-.37-.75-1.12-.18-1.3-1.87-1.31-.56-.74-1.3-2.05-.56-1.5-.93-2.79,1.11-4.1,2.8h-.56l-.56.56-1.12.19-.93.93-2.8,1.68-5.22,1.86-1.49.56h-1.31l-.37.37-5.22.94-3.17.93-6,.37-6.16-.56h-3l-1.12-.74L93,219.87l-2.24-1.12H90l-2.79-1.49-4.1-3.73-4.85-4.85-2-5-1.68-6L74.33,193l2-4.29.38-3L78.43,182l3.73-4.66,4.48-3.73.74-.18L90.74,171l5.59-1.49,2.61-.93,6-.19,5.78.56h2l.37.37h1.31l5,2.61,3,1.31,1.49,1.12.19.56,1.31.18,5,3.17,2.61,1.68,3,1.12ZM96.71,201l4.47,2.05,2.61.37,6.15-.56,4.1-.19v-.37l1.31-.18,4.85-3,3.17-2.61.37-1.12-.19-1.11-2.24-2.8L119.45,190l-1.31-.37-.93-1.12-1.3-.38-1.12-1.12H114v-.37h-.93l-.19-.56-6.15-1.67-3-.19-2.61.56-3,1.12-3.36,2.23-1.49,2.43L93,195.07l.18,2.43L96.52,201Z"/><path class="cls-1" d="M136.41,181.28l.75-.19,2.05-2.05,2.42-5.22.94-1.31.93-2.79.56-.38,1.3-3.91.38-.19.18-1.12.56-.56,1.31-4.28.56-.56,1.86-5.41.56-.37,1.49-4.29.93-1.12.56-2.42,1.12-3.17.56-.37.19-1.12.93-1.31,1.49-4.85,1.12-3v-.74l.93-.94.75-2.61,2.23-5.4.94-1.31,1.11-2.79V116.4l2.61-5.6.38-1.49,1.49-2.42,1.12-2.8,1.68-2.42,2-2,1.49-2.43,4.66-3.91L184.14,91l.75-.93h.93v-.56h.74L189,88.43l6.15-1.49,2.8.56,1.86,1.31,1.49,4.28.93,3-.55,3L200,101.3l-4.48,4.1-3.91,4.85-.38,1.3L189.55,114l-.75,1.87L187.68,117l-1.86,5.59v.75h-.56l-.19,2.23L184,127.77l-1.12,1.12v.74h-.38v.94h-.56v.74h-.37L180,136.72l-.56,1.49-.56.37-.56,3-2.24,4.66h-.37l-1.86,5.22-2.43,6-.18,1.49-2.43,5-2.23,5.4-2.43,5.6-2.05,5.4-1.49,1.87-.19,1.12-1.11,1.12-.94,1.86v.74l-.93.94v.74l-1.12.94-1.49,2.61L154.5,194l.19,1.31,1.67,2.61,5,3.17.56.74,1.86.75,1.3.93,5,1.49,2.61.75,5.78.56,6-.75,2.24-.56.75-.56,3.72-.74,5-3,1.3-.18,4.66-3.54,4.29-4.48,3.92-3.54.37-1.12,2-1.86.56-1.87L216,180.9l2.61-3.54.56-.37.19-1.31,2.05-4.66,1.12-1.12.93-2.79.93-.94.75-2.79,3-5.41.19-3h.37l.56-3,1.68-3.73.74-6,.75-5.59.56-6.15.55-5.78-.93-6v-6.15l-.37-2.8-1.49-6-2.42-5.41-2.8-5.59-1.31-2-3.72-3.73-2.43-1.49-3.54-3.17-1.31-.38v-.56h-.93v-.37h-.74v-.37l-5-1.68-6-1.86-5-.75-6.34-.19-6.33.38L177.62,78l-5.78,1.68-5.41,2.42-4.85,2.8-5.4,3-3.73,4.29-3.17,3.92L145.92,100l-.18,1.49-.75.38-.75,1.86-.74.93-.37,1.49-.94.75-.37,1.3-.93,1.12-.37,2.24-.38.37v1.49l-1.86,5.41-.37,6,.55,5.78,1.68,5.78.94,2.79v2.8l-1.68,2.42-4.85,3.36-1.49,1.49-1.12.19-.93.74-3.17.75L126,150l-.93-1.31-.74-.19-.56-2.05-1.49-2.79-.19-1.31-1.31-1.86-.55-3-.57-6.52-.37-5.78V119l1.12-5.6,1.31-6,1.11-5.22h.57v-.75h.37v-.93h.37l.75-2.61,2.23-4.1.56-.56.19-1.12,2-2.42.93-1.87,1.31-.37L134,85.26l1.12-.74v-.75l1.49-1.68.56-1.3,2.24-2.05,1.3-.37L145,74.08l2.42-2,5-3,5.4-2.61.94-.93,5.4-1.86,1.31-.19v-.37l5.78-2,5.78-1.12,5.78-.75,5.22-.74,6.52-.19,6,.56h1.3l1.49.56,3,.19,5.22,1.67,5,1.31.37.56,2.05.56.56.56,3.36.56v.37L227,67l.93,1.12,1.31.37,1.3,1.87,1.31.56.74.93,1.12.19,1.12,1.67,2.61,1.68,1.12,2.05,3.36,4.1L244,83.77l3.35,5v.74h.56v.93h.37v.75l2,4.66,2.24,5.59.75,5.78.93,2.43.56,5.78.18,6.15.38,2.79-.75,3,.37,5.78v3.17l-.74,4.84-.56.38-.56,6-1.49,5.78L250,159.09l-1.68,5.59-2.05,5.6-1.49,2.79-2,5.22-.93,1.12-.19,1.49-1.68,2.43v.93l-.74.19-.19.93h-.37v.93h-.37v.74l-.75.38-.37,1.12-.75.37-.56,1.3-2.79,3-.19,1.3-.93.56-.19,1.31-1.12.93-.74.19-.19,1.11L228,199.92v.56L224,205.14l-4.29,4.1-4.66,3.54-2.61,1.49-.93,1.12h-.93l-.38.93h-.74l-.94,1.12-2.61,1.5-5.4,2.05-6.16,1.86-5.59,1.86h-2.61l-1.86.56h-1.68l-.19-.56-3-.37-6,.75-.37-.38-6-1.11-3-.94-.37-.56-3-.56-5-2.79-1.68-1.31-2.23-.56-.75-1.11-1.12-.19-.37-.75-1.12-.18-1.3-1.87-1.31-.56-.74-1.3-2.05-.56-1.5-.93-2.79,1.11-4.1,2.8h-.56l-.56.56-1.12.19-.93.93-2.8,1.68-5.22,1.86-1.49.56h-1.31l-.37.37-5.22.94-3.17.93-6,.37-6.16-.56h-3l-1.12-.74L93,219.87l-2.24-1.12H90l-2.79-1.49-4.1-3.73-4.85-4.85-2-5-1.68-6L74.33,193l2-4.29.38-3L78.43,182l3.73-4.66,4.48-3.73.74-.18L90.74,171l5.59-1.49,2.61-.93,6-.19,5.78.56h2l.37.37h1.31l5,2.61,3,1.31,1.49,1.12.19.56,1.31.18,5,3.17,2.61,1.68,3,1.12ZM96.71,201l4.47,2.05,2.61.37,6.15-.56,4.1-.19v-.37l1.31-.18,4.85-3,3.17-2.61.37-1.12-.19-1.11-2.24-2.8L119.45,190l-1.31-.37-.93-1.12-1.3-.38-1.12-1.12H114v-.37h-.93l-.19-.56-6.15-1.67-3-.19-2.61.56-3,1.12-3.36,2.23-1.49,2.43L93,195.07l.18,2.43L96.52,201Z"/></svg>