<svg id="Layer_1" data-name="Layer 1" xmlns="http://www.w3.org/2000/svg" xmlns:xlink="http://www.w3.org/1999/xlink" viewBox="0 0 1107 589"><defs><style>.cls-1{fill:url(#linear-gradient);}.cls-2{fill:url(#linear-gradient-2);}.cls-3{fill:url(#linear-gradient-3);}</style><linearGradient id="linear-gradient" x1="46" y1="259.5" x2="554" y2="259.5" gradientUnits="userSpaceOnUse"><stop offset="0" stop-color="#fff" stop-opacity="0"/><stop offset="0.23" stop-color="#fff"/><stop offset="1" stop-color="#fff"/></linearGradient><linearGradient id="linear-gradient-2" x1="142" y1="851.5" x2="650" y2="851.5" gradientTransform="translate(412 -592)" xlink:href="#linear-gradient"/><linearGradient id="linear-gradient-3" x1="270.07" y1="309.62" x2="773.99" y2="221.41" gradientUnits="userSpaceOnUse"><stop offset="0" stop-color="#00a8de"/><stop offset="0.2" stop-color="#333391"/><stop offset="0.4" stop-color="#e91388"/><stop offset="0.6" stop-color="#eb2d2e"/><stop offset="0.81" stop-color="#ff8f00"/><stop offset="1" stop-color="#00ca07"/></linearGradient></defs><rect class="cls-1" x="46" y="139" width="508" height="241"/><rect class="cls-2" x="554" y="139" width="508" height="241" transform="translate(1616 519) rotate(180)"/><path d="M311.18,276.28l.74-.19,2.05-2,2.42-5.22.94-1.31.93-2.79.56-.38,1.3-3.91.38-.19.18-1.12.56-.56,1.31-4.28.56-.56,1.86-5.41.56-.37,1.49-4.29.94-1.12.55-2.42,1.12-3.17.56-.37.19-1.12.93-1.31,1.49-4.85,1.12-3v-.74l.93-.94.75-2.61,2.24-5.4.93-1.31,1.12-2.79V211.4l2.61-5.6.37-1.49,1.49-2.42,1.12-2.8,1.68-2.42,2-2,1.49-2.42,4.66-3.92L358.9,186l.75-.93h.93v-.56h.75l2.42-1.12,6.15-1.49,2.8.56,1.86,1.3,1.49,4.29.94,3-.56,3-1.68,2.24-4.48,4.1-3.91,4.85-.37,1.3L364.31,209l-.75,1.87L362.44,212l-1.86,5.59v.74H360l-.19,2.24-1.12,2.24-1.11,1.12v.74h-.38v.94h-.56v.74h-.37l-1.49,5.41-.56,1.49-.56.37-.56,3-2.24,4.66h-.37l-1.86,5.22-2.43,6L346,253.9l-2.42,5-2.24,5.4-2.43,5.6-2.05,5.4-1.49,1.87-.19,1.12-1.11,1.12-.94,1.86v.74l-.93.94v.74l-1.12.94-1.49,2.61-.37,1.67.19,1.31,1.67,2.61,5,3.17.56.74,1.86.75,1.31.93,5,1.49,2.61.75,5.78.56,6-.75,2.23-.56.75-.56,3.73-.74,5-3,1.3-.18,4.67-3.54,4.28-4.48,3.92-3.54.37-1.12,2.05-1.86.56-1.87,2.61-3.17,2.61-3.54L394,272l.19-1.31,2.05-4.66,1.12-1.12.93-2.79.93-.94.75-2.79,3-5.41.19-3h.37l.56-3,1.68-3.73.74-6,.75-5.59.56-6.15.56-5.78-.93-6v-6.15l-.38-2.8-1.49-6-2.42-5.41-2.8-5.59-1.31-2-3.72-3.73-2.43-1.49-3.54-3.17-1.31-.38v-.55h-.93v-.38h-.74v-.37l-5-1.68-6-1.86-5-.75-6.33-.19-6.34.38-5.22,1.3-5.78,1.68-5.41,2.42-4.85,2.8-5.4,3-3.73,4.29L324,191.08,320.68,195l-.18,1.49-.75.38-.74,1.86-.75.93-.37,1.49-.93.75-.38,1.3-.93,1.12-.37,2.24-.38.37v1.49L313,213.82l-.37,6,.56,5.78,1.67,5.78.94,2.79v2.8l-1.68,2.42-4.85,3.36-1.49,1.49-1.12.19-.93.74-3.17.75-1.87-.93-.93-1.31-.74-.19-.56-2.05L297,238.62l-.19-1.31-1.3-1.86-.56-3-.56-6.52-.38-5.78V214l1.12-5.6,1.31-6,1.12-5.22h.55v-.75h.38v-.93h.37l.75-2.61,2.23-4.1.56-.56.19-1.12,2-2.42.93-1.87,1.31-.37,1.86-2.24,1.12-.74v-.75l1.49-1.68.56-1.3,2.24-2,1.3-.37,4.29-4.29,2.42-2.05,5-3,5.41-2.61.93-.93,5.4-1.86,1.31-.19v-.37L346,156l5.78-1.12,5.78-.75,5.22-.74,6.52-.19,6,.56h1.3l1.49.56,3,.19,5.22,1.67,5,1.31.37.56,2.05.56.56.56,3.36.56v.37l4.1,1.86.93,1.12,1.31.37,1.3,1.87,1.31.56.75.93,1.11.19,1.12,1.68,2.61,1.67,1.12,2.05,3.36,4.11,2.05,2.23,3.35,5v.75h.56v.93H423v.75l2,4.66,2.23,5.59.75,5.78.93,2.43.56,5.77.19,6.16.37,2.79-.75,3,.38,5.78v3.17l-.75,4.84-.56.38-.56,6-1.49,5.78-1.68,5.78L423,259.68l-2.06,5.6-1.49,2.79-2.05,5.22-.93,1.12-.19,1.49-1.68,2.43v.93l-.74.19-.19.93h-.37v.93H413v.74l-.75.38-.37,1.12-.75.37-.56,1.3-2.79,3-.19,1.3-.93.56-.19,1.31-1.12.93-.74.19-.19,1.11-1.68,1.31v.56l-3.91,4.66-4.29,4.1-4.66,3.54-2.61,1.49-.93,1.12h-.93l-.38.93h-.74l-.94,1.12-2.61,1.5-5.4,2.05-6.15,1.86-5.6,1.86H361l-1.86.56h-1.68l-.19-.56-3-.37-6,.75-.38-.38-6-1.11-3-.94-.37-.56-3-.56-5-2.79-1.67-1.31-2.24-.56-.75-1.11-1.11-.19-.38-.75-1.12-.18-1.3-1.87-1.31-.56-.74-1.3-2.05-.56-1.5-.93-2.79,1.11-4.1,2.8h-.56l-.56.56-1.12.19-.93.93-2.8,1.68-5.22,1.86-1.49.56h-1.3l-.38.37-5.22.94-3.17.93-6,.37-6.16-.56h-3l-1.12-.74-2.79-.56-2.24-1.12h-.75L262,312.26l-4.1-3.73L253,303.68l-2-5-1.68-6-.19-4.66,2-4.29.38-3L253.2,277l3.72-4.66,4.48-3.73.74-.18L265.5,266l5.59-1.49,2.61-.93,6-.19,5.78.56h2.05l.37.37h1.31l5,2.61,3,1.31,1.49,1.12.19.56,1.31.18,5,3.17,2.61,1.68,3,1.12ZM271.46,296l4.48,2,2.61.37,6.15-.56,4.1-.19v-.37l1.31-.18,4.85-3,3.16-2.61.38-1.12-.19-1.11-2.24-2.8L294.21,285l-1.31-.37-.93-1.12-1.3-.38-1.12-1.12h-.75v-.37h-.93l-.18-.56-6.16-1.67-3-.19-2.61.56-3,1.12-3.36,2.23-1.49,2.43-.37,4.47.18,2.43,3.36,3.54Z"/><path d="M513.83,238.24l-1.49,6-1.49,4.47h-.38v.94h-.37v.74h-.37v.93h-.56V252l-1.49,2.61-.38,3-2.79,5-1.68,5.78-2.42,5.22-1.31,2.79-.56,2.8-.56.56L496.49,285l-.93,3.35v3.36l.56,3,.75,1.49,1.11.38.38.74h2.23l2.8-.93,2.42-1.3,4.66-4.11,1.31-.56,4.1-4.47.37-.75,2-1.67,1.5-2.43,2.61-2.79.37-1.31.75-.37.55-1.31.75-.37.37-1.3.93-.38.38-1.3L528,270.5l.19-1.12,3.54-5,1.12-2.42,2.23-2.8.94-.56,2.79.38,2.8,1.3,2,2.05.56,2.24-1.12,2.8-2.05,3.73-.93.93v.74l-2.24,3.36h-.37V277h-.38l-.56,1.87-1.3,1.86-2,1.68-.19,1.12-.56.37-.74,1.3-1.31,1.12v.75l-1.49,1.49-.19,1.12-4.1,4.47-4.1,3.92-4.66,4.1-4.1,3.54h-.93v.37h-.75v.38h-.93l-.19.74-3.54,1.87L501,310.58l-5.6,1.49-2.61.37-5.78-.93-2.79-.74-2.43-1.12-4.1-4.29-2.42-3-.19-1.31-2.61-1.68-1.3.38-4.66,3.91-4.29,3.92-2.8,1.11-1.68,1.12-2.79.94-4.29.37-.56.56-5.41.37-2.61-.37-.37-.56-2.05-.37v-.38h-.93V310H438v-.56H437v-.37l-2.61-1.31L431.8,305l-.19-.94-.93-.37-.74-3-.56-.56-.93-4.48-.75-6,.56-6,.56-3v-3.92l.93-2.05.37-3.35,1.49-4.1,1.5-5.22,1.11-3.55.38-.18,1.68-5.59,1.3-3,1.3-4.66.94-1.12.56-2.05.93-.93,1.86-4.1,1.12-.93.93-2.8.56-.37.75-1.87,1.3-.93.56-1.49,1.12-.75,1.68-2.42.56-1.49,3-3.36,2.61-1.68.75-1.3H459l.19-.75,1.86-.56.56-.93h.75l1.3-.93,1.3-.19.19-.74.93-.19.56-.93h.75l1.3-.93,5.6-1.31h6.15l4.66,1.12v.37l2.24.38.93,1.12,2.61,1.67,2.24,2.24,1.86,3.36.56.37.37,1.12,3.17,2H500l.37-.56,2.42-.37,5.41-2.61,5.22-2.24,4.66-2.24h1.68l2.61,2.61-.19,1.87-2.42,5.4-.38,1.87-.56.37-.74,2.42-2.8,6-.74,1.3-.56.38ZM477.1,230.6h-.74V231h-.93v.38h-.75l-.93,1.3-1.68.93-3.92,4.48L465,243.28l-3.54,4.84L460.7,250h-.38v.93h-.55l-.38,2.05-.74,1.31-.56.37-.94,3-.93,1.12-1.12,2.61-1.3,5.78L451.94,272,451,274.6l-1.12,6v6.53l.75,2.61,1.86,2.05,2.24,1.3h3.36l4.1-.93.93-.93.93-.19.38-.93h.93l.37-.74,3.54-3,3.73-4.29,3-3.35.19-1.31,2.24-5.59.93-2.8,1.49-2.23.93-3.36.94-.93v-.75l.74-.93,1.87-6,2.05-5.41,2.42-5.59.56-3.17v-2.61l-.56-2.8-1.49-2.61-2.24-2.05-2.61-.93-3-.38-.37.38-2.8.74Z"/><path d="M594.93,284.11l3.54-4.66,1.49-2.62L602,274.6l.37-1.12.93-.75.19-1.11,1.67-2.24,2.43-4.29v-.75L611,259.5l1.87-1.12,3,.37,1.49.56,2.8,3v2.8l-1.12,3-2.05,3-.19.74-.56.37-.18.94h-.38V274h-.37v.74h-.56l-.18,1.31-4.11,4.66-.55.56-.38,1.3-3.17,5L603,292.31l-2.05,2.42v.75L599.59,297h-.37l-1.87,2.61-4.28,3.73-4.48,3.54L583,310l-2.42,1.12h-6l-5.78.74L563.24,310l-1.31-.75L561,308l-2.8-1.87L558,305l-.56-.38-1.87-6-.74-2.8v-6l1.49-5.4,1.12-6,1.49-5.78,1.3-4.28,1.12-1.12,2-5.78,2.24-5.41,1.49-2.8.75-3,.37-.37.56-2.43.19-3.16-.94-2.61-1.67-2.24L561.75,236l-1.5.18-1.11.56-2,2.43-.56,2.23-.94.94-.74,2.61-2.61,5-2.8,5.4-.74,2.24-1.12,1.12v.93h-.37l-1.5,3-1.12,1.12-.55,1.3-1.12.56-3.17-.19-2-.56-2.8-3.54v-1.49l2.61-5.59,1.68-3.17,1.49-2.43.37-1.3.93-1.12.19-.93h.37l1.12-2.8.56-.56.19-1.12,2.8-5.4,2.42-5.41v-3.17l-.75-2.8L548,223l-.37-1.5-1.31-1.67L545.9,214l.37-3.36.75-2.79,1.3-2.61,3.92-4.48,2-2.05,1.3-.75,1.31-1.67,2.05-.75,3.35-.37,3,.93,1.12.93.18.56,2.61,1.49,2.24,2,.75,1.12-.38,2.8-2,5.4-2.61,5.23.38,2.23,1.3,1.87.75.18.93,1.12,3,1.68,4.47,4.29,2.24,1.3.38.93,1.3.38,3.73,4.47,2,2.24,1.68,2.61,1.3,5.78-.37,2,.37.56-.18,3-.94,3.73-.56.37-.74,3-.93,1.3-.19,1.31-2.42,5.22-1.12,2.79v.75h-.37l-.19,1.12-.93,1.12-.38,1.3-.93,1.49-.56,3.92h-.37l-.75,3L577,286.34l-.37,2.8v3.73l1.68,3,1.3.75,1.68.37.93-.19,4.29-2.61,4.1-4.1,1.68-2.61,1.12-.93,1.3-2.24Z"/><path d="M649.18,175.79l.56-.37h5.78l6.53.18h.56l1.68,1.12.93,2.05-.56,2.8-1.87,5.78-2,5-1.12,3.54-2,4.85-.74,2-.56.56L654,208.79l-.93,2.42-.93.93-.38,2.61-.37.19v.56l-.56.56-.37,2.79-1.12,1.87-.19.93-.56.37-2.42,5.78L646,230l-2.61,4.29-.93,2.61L641,243.09l-2.61,5-2.24,5.6-2.23,5.78-2.24,5.59-2,5.41-.56,1.67-.56.38-1.87,5-1.86,4.66-1.3,5.41L622.9,291v2.05l.37,1.12,2.42,2.24,2.43.75,3-.94,2.61-1.49,3.17-2.42,1.68-1.87,1.12-.37,3.17-4.1.74-.19,1.49-2.42,2.43-1.86.37-1.31,2-2.05,3.36-4.85.93-1.12v-.93l.93-.37.37-1.31,1.12-.74v-1.31l.93-1.12.38-1.11,3.35-4.85.75-1.31,2.24-.93h1.86l2.8,1.12,1.67,2.42.56,2.8-.74,2.8-3.17,5-3.36,5-1.68,2.24-2.61,5.22-.74,1.12-1.68.93v.75l-3.91,4.29-3.92,4.66-3.91,4.1-4.67,3.91-2.61,1.31-2,1.68-1.86.56-.56.55-1.86.56-1.12.94-5.6,1.49-2.79.37-1.87-.19-.37-.56-6.15.19-4.48-1.86L607.24,308l-3.55-3.73-.56-3-.37-.38-.37-2.23-.93-.75-.38-6,.94-5.6.74-3.35v-2.05l1.68-4.29,1.86-5.78,2.61-5.22L610,263l1.31-6,1.49-2.42,1.86-4.66,1.5-4.1,1.67-4.66.93-2.8.57-.56,1.86-5.41,1.3-2.61,1.87-4.84.93-2.8.56-.56,2.24-5.41,2-5,2.05-5.41,2.24-5.4.74-2.8,2.61-5,.19-1.31,1.49-2.79.37-2.43,1.12-1.67.93-3.17,3.17-4.11,3.73-1.3Z"/><path d="M711.64,210.65l.37-.37h6l2.42.74.56.56,3,.75,2,1.68,2.8,1.12,1.86,2.42,3,2.42.37,1.31.75.37v.93l.74.56.75,5.41.74,6-.37,3-1.49,5.59-.19,1.49-1.68,3.92-1.11,1.3L731,253l-.75.37-.93,2.43-1.12,1.12-1.3,2.23-4.48,4.29L720,265.28l-.75.18-.93.93-2.61,1.5-1.68.56-.74.93h-.94v.37l-4.66,1.49-2.42.75-3,.18-1.31.56h-5.78l-5.78.19-6.15.19-3,2.23-.94,5.6v6.34l.94,2.42,3.54,4.29,2.61,1.86,2,.93,3.36.75,6.33.18,5.6-.93,5.4-2.23,5.78-2.43,3.73-3h.93l.38-.75H721l2.42-2.61,1.12-.18,2-2.61,1.31-.38,3.54-3.54,3.73-4.29,3.54-4.47,3.54-4.85,1.87-2.42.18-1.12,2.8-3.54,2.61-.75,2.61,1.31,2.05,1.49,1.12,2.61-.19,3.17h-.37l-.37,1.3-3.17,5-1.12,2.05-1.86,2.23-.56,1.31-2.43,2.61-.18,1.12-3.92,4.29-4.1,4.28-4.29,4.11-3.73,3.72-1.49.56-.93,1.12-1.31.38-.37.55-2.61,1.31L718,305.73H717v.37l-3,.75-.37.56-3,.56-4.11,1.49-2.23.37-.38.56-5.78.75h-.55v.37l-2.62.19-3.16.74-6-.56h-2.8l-4.66-1.49-3-.37-5.59-2.61-2.24-1.31L666.52,305l-1.49-.75-2.24-3.36-.56-.37-1.49-2.61-.18-1.12L660,296l-1.12-6.34-.75-5.59L658,278l1.11-5.78.56-4.47.56-.37,1.12-5.6,1.31-3.72v-2.24l2.23-4.85,2.24-4.66.93-1.49,1.87-4.1.74-.38L671,239l2.79-4.66,2.43-3.73,3.91-3.92,2.24-1.86,2-2.61,2.24-1.86,1.3-1.68,1.12-.19,4.85-3.17.93-.18.75-1.12,2.6-1.12L704,211l5.78-.37Zm1.3,18.64h-5l-2.42,1.12-1.12.19-3.92,3.54-1.12.19L695.42,239l-1.87,3.36-.56.37-2.79,4.47-.93,2.8h-.38v.74h-.56l-.18,1.31-2.24,5.59,1.3,2.05,1.12.56H695l2.24-.18,1.12-.94,1.49-.37,1.68-1.3,2.24-.94.37-.55,1.12-.19,4.1-4.48,2.42-5,2.61-5.41,1.12-3,.75-5.59-2.24-2.43Z"/><path d="M800,300.14l1.3.56,5.23-2.8,5.21-3.73,1.31-.74.74-1.31,1.5-.56,2.05-2.23,4.47-3.55,7.83-8.95,3.73-4.66,2.8-3.91.37-1.12.93-1.12.19-1.12,1.86-2,1.68-2.61,2-2.05,1.12-.18,2.8.74,1.11.75,2.06,2.42.55,3-.37,1.49L848.67,269,847,270.87l-.93,3.17-1.12,1.12-.56,1.49H844l-.19.74-1.12.94-.56,1.12-1.86,1.67-3.36,4.29-3.73,4.47L828.72,294l-4.29,4.47L820,301.82l-2.8,1.49L812.69,307l-2.24,1.49-1.87.74-5,3-5.22,2.79-1.3.38-1.31.93-1.49.37L792,318.41l-2,2.24-1.49,4.1-2.42,5-1.49,3.92-1.12,2.42-.19,1.31-.93,1.11-.37,1.31-.94,1.3-.56,1.87-1.49,1.86-.56,1.31-.74.37-3.17,4.85-3.73,4.66-2.42,2.8h-.94l-.37.93-1.3.18-1.12,1.12-5,2.43-2.79,1.3-5.41.75-3.36.18-3-.37-5.78-1.68-1.3-.37-2.61-1.68-4.11-4.1-1.67-2.8-.93-3-.56-6,.18-1.67.38-.38.74-2.79,3-4.85,1.5-1.49.18-.75,4.48-3.91,1.12-1.31.74-.18,1.49-1.87,5.22-2.61,5.22-2.79,5.78-2.24,1.31-.56.93-.93,5.41-2.24,2.42-1.3,2.24-2.06,1.86-2.42.19-1.49L772,307l-1.3-.94-4.47,2.06-2.43,1.3-1.49.37-.56.75-5.41.93H753l-6.15-.93-1.31-.75v-.37h-.93l-2-2h-.93l-2.43-4.66h-.56l-2-5.59.56-2.24-.56-6.34,1.12-6,.19-1.49.37-.37v-1.3l1.31-2.24.55-2,.56-.56.94-4.85.55-.37,1.87-5.41,2-5.59,2.61-5.41,2.24-5.78,2-5.59,2.24-5.22v-.75h.37l.18-1.12,1.12-1.11v-.75l.56-.56,1.68-5.59,1.86-5.59h.56V220H762l.74-2.79.56-.19v-.75l2.43-3,4.84-1.12,7.46.19,3.17.37,2.24.75,2.61,2.24v1.49l-2,4.1L783,225l-.93,1.3-.74,2.61-.75.93v.75l-.56.37-1.3,3.92-.94,1.12-.18,2.05-2.24,5.22-2.24,5.4-4.47,10.44-.37,1.5-1.5,2.6L765,269v.75l-.93.93-.19,1.49-1.12,2.43-.93.93-1.68,6L759,284.29l-.74,6.34.19,1.49,1.49,2.24,2.42.93,6.15-1.68.38-.74,1.86-.93,3.73-4.66,2.61-2.24.56-1.31,2.24-2.05.18-.93,3.36-5,.56-1.31.74-.37,1.12-2.8,1.87-2.24.37-1.3.93-.93V266l1.68-2.23.18-1.87,1.5-2.61.93-.93.18-2.05L795,253h.38l.56-2.24,1.12-1.11,1.11-2.43,1.5-5.59,2.23-5.59.56-2.61,2.43-5.78,2.61-5.41,1.3-5.22.56-1.3,1.87-2.06,2.6-.93h6l4.66-.74,3.54.56,2.8,1.11,1.31,1.68.18,1.12-.74,2.8L829.09,225l-.37,1.3-.56.37v.75L825.74,233l-2.24,5.41-.37,1.49-.75,1.12-.93,2.8-1.68,2.23-1.12,2.43-.93,4.84-2.05,4.48-2.24,5.59L811,269l-2.43,5.41L806.35,280l-.93,2.8-1.5,2.61-1.67,5.22-.56.75-.75,3-1.86,3.73.37,1.49.37.19Zm-40.64,30-5.6,2.61-4.47,2.05-2.24,1.5-.37.56-1.31.74-2,2.24-.37,1.3-1.12,1.31-.93,2.05.37,2.24.93,1.49,2.06,1.3h3.35l3-1.12,2-1.49,4.1-4.47,3.17-5,2.42-4.67v-1.3l-1.86-1.68-.75.19Z"/><path class="cls-3" d="M311.18,276.28l.74-.19,2.05-2,2.42-5.22.94-1.31.93-2.79.56-.38,1.3-3.91.38-.19.18-1.12.56-.56,1.31-4.28.56-.56,1.86-5.41.56-.37,1.49-4.29.94-1.12.55-2.42,1.12-3.17.56-.37.19-1.12.93-1.31,1.49-4.85,1.12-3v-.74l.93-.94.75-2.61,2.24-5.4.93-1.31,1.12-2.79V211.4l2.61-5.6.37-1.49,1.49-2.42,1.12-2.8,1.68-2.42,2-2,1.49-2.42,4.66-3.92L358.9,186l.75-.93h.93v-.56h.75l2.42-1.12,6.15-1.49,2.8.56,1.86,1.3,1.49,4.29.94,3-.56,3-1.68,2.24-4.48,4.1-3.91,4.85-.37,1.3L364.31,209l-.75,1.87L362.44,212l-1.86,5.59v.74H360l-.19,2.24-1.12,2.24-1.11,1.12v.74h-.38v.94h-.56v.74h-.37l-1.49,5.41-.56,1.49-.56.37-.56,3-2.24,4.66h-.37l-1.86,5.22-2.43,6L346,253.9l-2.42,5-2.24,5.4-2.43,5.6-2.05,5.4-1.49,1.87-.19,1.12-1.11,1.12-.94,1.86v.74l-.93.94v.74l-1.12.94-1.49,2.61-.37,1.67.19,1.31,1.67,2.61,5,3.17.56.74,1.86.75,1.31.93,5,1.49,2.61.75,5.78.56,6-.75,2.23-.56.75-.56,3.73-.74,5-3,1.3-.18,4.67-3.54,4.28-4.48,3.92-3.54.37-1.12,2.05-1.86.56-1.87,2.61-3.17,2.61-3.54L394,272l.19-1.31,2.05-4.66,1.12-1.12.93-2.79.93-.94.75-2.79,3-5.41.19-3h.37l.56-3,1.68-3.73.74-6,.75-5.59.56-6.15.56-5.78-.93-6v-6.15l-.38-2.8-1.49-6-2.42-5.41-2.8-5.59-1.31-2-3.72-3.73-2.43-1.49-3.54-3.17-1.31-.38v-.55h-.93v-.38h-.74v-.37l-5-1.68-6-1.86-5-.75-6.33-.19-6.34.38-5.22,1.3-5.78,1.68-5.41,2.42-4.85,2.8-5.4,3-3.73,4.29L324,191.08,320.68,195l-.18,1.49-.75.38-.74,1.86-.75.93-.37,1.49-.93.75-.38,1.3-.93,1.12-.37,2.24-.38.37v1.49L313,213.82l-.37,6,.56,5.78,1.67,5.78.94,2.79v2.8l-1.68,2.42-4.85,3.36-1.49,1.49-1.12.19-.93.74-3.17.75-1.87-.93-.93-1.31-.74-.19-.56-2.05L297,238.62l-.19-1.31-1.3-1.86-.56-3-.56-6.52-.38-5.78V214l1.12-5.6,1.31-6,1.12-5.22h.55v-.75h.38v-.93h.37l.75-2.61,2.23-4.1.56-.56.19-1.12,2-2.42.93-1.87,1.31-.37,1.86-2.24,1.12-.74v-.75l1.49-1.68.56-1.3,2.24-2,1.3-.37,4.29-4.29,2.42-2.05,5-3,5.41-2.61.93-.93,5.4-1.86,1.31-.19v-.37L346,156l5.78-1.12,5.78-.75,5.22-.74,6.52-.19,6,.56h1.3l1.49.56,3,.19,5.22,1.67,5,1.31.37.56,2.05.56.56.56,3.36.56v.37l4.1,1.86.93,1.12,1.31.37,1.3,1.87,1.31.56.75.93,1.11.19,1.12,1.68,2.61,1.67,1.12,2.05,3.36,4.11,2.05,2.23,3.35,5v.75h.56v.93H423v.75l2,4.66,2.23,5.59.75,5.78.93,2.43.56,5.77.19,6.16.37,2.79-.75,3,.38,5.78v3.17l-.75,4.84-.56.38-.56,6-1.49,5.78-1.68,5.78L423,259.68l-2.06,5.6-1.49,2.79-2.05,5.22-.93,1.12-.19,1.49-1.68,2.43v.93l-.74.19-.19.93h-.37v.93H413v.74l-.75.38-.37,1.12-.75.37-.56,1.3-2.79,3-.19,1.3-.93.56-.19,1.31-1.12.93-.74.19-.19,1.11-1.68,1.31v.56l-3.91,4.66-4.29,4.1-4.66,3.54-2.61,1.49-.93,1.12h-.93l-.38.93h-.74l-.94,1.12-2.61,1.5-5.4,2.05-6.15,1.86-5.6,1.86H361l-1.86.56h-1.68l-.19-.56-3-.37-6,.75-.38-.38-6-1.11-3-.94-.37-.56-3-.56-5-2.79-1.67-1.31-2.24-.56-.75-1.11-1.11-.19-.38-.75-1.12-.18-1.3-1.87-1.31-.56-.74-1.3-2.05-.56-1.5-.93-2.79,1.11-4.1,2.8h-.56l-.56.56-1.12.19-.93.93-2.8,1.68-5.22,1.86-1.49.56h-1.3l-.38.37-5.22.94-3.17.93-6,.37-6.16-.56h-3l-1.12-.74-2.79-.56-2.24-1.12h-.75L262,312.26l-4.1-3.73L253,303.68l-2-5-1.68-6-.19-4.66,2-4.29.38-3L253.2,277l3.72-4.66,4.48-3.73.74-.18L265.5,266l5.59-1.49,2.61-.93,6-.19,5.78.56h2.05l.37.37h1.31l5,2.61,3,1.31,1.49,1.12.19.56,1.31.18,5,3.17,2.61,1.68,3,1.12ZM271.46,296l4.48,2,2.61.37,6.15-.56,4.1-.19v-.37l1.31-.18,4.85-3,3.16-2.61.38-1.12-.19-1.11-2.24-2.8L294.21,285l-1.31-.37-.93-1.12-1.3-.38-1.12-1.12h-.75v-.37h-.93l-.18-.56-6.16-1.67-3-.19-2.61.56-3,1.12-3.36,2.23-1.49,2.43-.37,4.47.18,2.43,3.36,3.54Z"/><path class="cls-3" d="M513.83,238.24l-1.49,6-1.49,4.47h-.38v.94h-.37v.74h-.37v.93h-.56V252l-1.49,2.61-.38,3-2.79,5-1.68,5.78-2.42,5.22-1.31,2.79-.56,2.8-.56.56L496.49,285l-.93,3.35v3.36l.56,3,.75,1.49,1.11.38.38.74h2.23l2.8-.93,2.42-1.3,4.66-4.11,1.31-.56,4.1-4.47.37-.75,2-1.67,1.5-2.43,2.61-2.79.37-1.31.75-.37.55-1.31.75-.37.37-1.3.93-.38.38-1.3L528,270.5l.19-1.12,3.54-5,1.12-2.42,2.23-2.8.94-.56,2.79.38,2.8,1.3,2,2.05.56,2.24-1.12,2.8-2.05,3.73-.93.93v.74l-2.24,3.36h-.37V277h-.38l-.56,1.87-1.3,1.86-2,1.68-.19,1.12-.56.37-.74,1.3-1.31,1.12v.75l-1.49,1.49-.19,1.12-4.1,4.47-4.1,3.92-4.66,4.1-4.1,3.54h-.93v.37h-.75v.38h-.93l-.19.74-3.54,1.87L501,310.58l-5.6,1.49-2.61.37-5.78-.93-2.79-.74-2.43-1.12-4.1-4.29-2.42-3-.19-1.31-2.61-1.68-1.3.38-4.66,3.91-4.29,3.92-2.8,1.11-1.68,1.12-2.79.94-4.29.37-.56.56-5.41.37-2.61-.37-.37-.56-2.05-.37v-.38h-.93V310H438v-.56H437v-.37l-2.61-1.31L431.8,305l-.19-.94-.93-.37-.74-3-.56-.56-.93-4.48-.75-6,.56-6,.56-3v-3.92l.93-2.05.37-3.35,1.49-4.1,1.5-5.22,1.11-3.55.38-.18,1.68-5.59,1.3-3,1.3-4.66.94-1.12.56-2.05.93-.93,1.86-4.1,1.12-.93.93-2.8.56-.37.75-1.87,1.3-.93.56-1.49,1.12-.75,1.68-2.42.56-1.49,3-3.36,2.61-1.68.75-1.3H459l.19-.75,1.86-.56.56-.93h.75l1.3-.93,1.3-.19.19-.74.93-.19.56-.93h.75l1.3-.93,5.6-1.31h6.15l4.66,1.12v.37l2.24.38.93,1.12,2.61,1.67,2.24,2.24,1.86,3.36.56.37.37,1.12,3.17,2H500l.37-.56,2.42-.37,5.41-2.61,5.22-2.24,4.66-2.24h1.68l2.61,2.61-.19,1.87-2.42,5.4-.38,1.87-.56.37-.74,2.42-2.8,6-.74,1.3-.56.38ZM477.1,230.6h-.74V231h-.93v.38h-.75l-.93,1.3-1.68.93-3.92,4.48L465,243.28l-3.54,4.84L460.7,250h-.38v.93h-.55l-.38,2.05-.74,1.31-.56.37-.94,3-.93,1.12-1.12,2.61-1.3,5.78L451.94,272,451,274.6l-1.12,6v6.53l.75,2.61,1.86,2.05,2.24,1.3h3.36l4.1-.93.93-.93.93-.19.38-.93h.93l.37-.74,3.54-3,3.73-4.29,3-3.35.19-1.31,2.24-5.59.93-2.8,1.49-2.23.93-3.36.94-.93v-.75l.74-.93,1.87-6,2.05-5.41,2.42-5.59.56-3.17v-2.61l-.56-2.8-1.49-2.61-2.24-2.05-2.61-.93-3-.38-.37.38-2.8.74Z"/><path class="cls-3" d="M594.93,284.11l3.54-4.66,1.49-2.62L602,274.6l.37-1.12.93-.75.19-1.11,1.67-2.24,2.43-4.29v-.75L611,259.5l1.87-1.12,3,.37,1.49.56,2.8,3v2.8l-1.12,3-2.05,3-.19.74-.56.37-.18.94h-.38V274h-.37v.74h-.56l-.18,1.31-4.11,4.66-.55.56-.38,1.3-3.17,5L603,292.31l-2.05,2.42v.75L599.59,297h-.37l-1.87,2.61-4.28,3.73-4.48,3.54L583,310l-2.42,1.12h-6l-5.78.74L563.24,310l-1.31-.75L561,308l-2.8-1.87L558,305l-.56-.38-1.87-6-.74-2.8v-6l1.49-5.4,1.12-6,1.49-5.78,1.3-4.28,1.12-1.12,2-5.78,2.24-5.41,1.49-2.8.75-3,.37-.37.56-2.43.19-3.16-.94-2.61-1.67-2.24L561.75,236l-1.5.18-1.11.56-2,2.43-.56,2.23-.94.94-.74,2.61-2.61,5-2.8,5.4-.74,2.24-1.12,1.12v.93h-.37l-1.5,3-1.12,1.12-.55,1.3-1.12.56-3.17-.19-2-.56-2.8-3.54v-1.49l2.61-5.59,1.68-3.17,1.49-2.43.37-1.3.93-1.12.19-.93h.37l1.12-2.8.56-.56.19-1.12,2.8-5.4,2.42-5.41v-3.17l-.75-2.8L548,223l-.37-1.5-1.31-1.67L545.9,214l.37-3.36.75-2.79,1.3-2.61,3.92-4.48,2-2.05,1.3-.75,1.31-1.67,2.05-.75,3.35-.37,3,.93,1.12.93.18.56,2.61,1.49,2.24,2,.75,1.12-.38,2.8-2,5.4-2.61,5.23.38,2.23,1.3,1.87.75.18.93,1.12,3,1.68,4.47,4.29,2.24,1.3.38.93,1.3.38,3.73,4.47,2,2.24,1.68,2.61,1.3,5.78-.37,2,.37.56-.18,3-.94,3.73-.56.37-.74,3-.93,1.3-.19,1.31-2.42,5.22-1.12,2.79v.75h-.37l-.19,1.12-.93,1.12-.38,1.3-.93,1.49-.56,3.92h-.37l-.75,3L577,286.34l-.37,2.8v3.73l1.68,3,1.3.75,1.68.37.93-.19,4.29-2.61,4.1-4.1,1.68-2.61,1.12-.93,1.3-2.24Z"/><path class="cls-3" d="M649.18,175.79l.56-.37h5.78l6.53.18h.56l1.68,1.12.93,2.05-.56,2.8-1.87,5.78-2,5-1.12,3.54-2,4.85-.74,2-.56.56L654,208.79l-.93,2.42-.93.93-.38,2.61-.37.19v.56l-.56.56-.37,2.79-1.12,1.87-.19.93-.56.37-2.42,5.78L646,230l-2.61,4.29-.93,2.61L641,243.09l-2.61,5-2.24,5.6-2.23,5.78-2.24,5.59-2,5.41-.56,1.67-.56.38-1.87,5-1.86,4.66-1.3,5.41L622.9,291v2.05l.37,1.12,2.42,2.24,2.43.75,3-.94,2.61-1.49,3.17-2.42,1.68-1.87,1.12-.37,3.17-4.1.74-.19,1.49-2.42,2.43-1.86.37-1.31,2-2.05,3.36-4.85.93-1.12v-.93l.93-.37.37-1.31,1.12-.74v-1.31l.93-1.12.38-1.11,3.35-4.85.75-1.31,2.24-.93h1.86l2.8,1.12,1.67,2.42.56,2.8-.74,2.8-3.17,5-3.36,5-1.68,2.24-2.61,5.22-.74,1.12-1.68.93v.75l-3.91,4.29-3.92,4.66-3.91,4.1-4.67,3.91-2.61,1.31-2,1.68-1.86.56-.56.55-1.86.56-1.12.94-5.6,1.49-2.79.37-1.87-.19-.37-.56-6.15.19-4.48-1.86L607.24,308l-3.55-3.73-.56-3-.37-.38-.37-2.23-.93-.75-.38-6,.94-5.6.74-3.35v-2.05l1.68-4.29,1.86-5.78,2.61-5.22L610,263l1.31-6,1.49-2.42,1.86-4.66,1.5-4.1,1.67-4.66.93-2.8.57-.56,1.86-5.41,1.3-2.61,1.87-4.84.93-2.8.56-.56,2.24-5.41,2-5,2.05-5.41,2.24-5.4.74-2.8,2.61-5,.19-1.31,1.49-2.79.37-2.43,1.12-1.67.93-3.17,3.17-4.11,3.73-1.3Z"/><path class="cls-3" d="M711.64,210.65l.37-.37h6l2.42.74.56.56,3,.75,2,1.68,2.8,1.12,1.86,2.42,3,2.42.37,1.31.75.37v.93l.74.56.75,5.41.74,6-.37,3-1.49,5.59-.19,1.49-1.68,3.92-1.11,1.3L731,253l-.75.37-.93,2.43-1.12,1.12-1.3,2.23-4.48,4.29L720,265.28l-.75.18-.93.93-2.61,1.5-1.68.56-.74.93h-.94v.37l-4.66,1.49-2.42.75-3,.18-1.31.56h-5.78l-5.78.19-6.15.19-3,2.23-.94,5.6v6.34l.94,2.42,3.54,4.29,2.61,1.86,2,.93,3.36.75,6.33.18,5.6-.93,5.4-2.23,5.78-2.43,3.73-3h.93l.38-.75H721l2.42-2.61,1.12-.18,2-2.61,1.31-.38,3.54-3.54,3.73-4.29,3.54-4.47,3.54-4.85,1.87-2.42.18-1.12,2.8-3.54,2.61-.75,2.61,1.31,2.05,1.49,1.12,2.61-.19,3.17h-.37l-.37,1.3-3.17,5-1.12,2.05-1.86,2.23-.56,1.31-2.43,2.61-.18,1.12-3.92,4.29-4.1,4.28-4.29,4.11-3.73,3.72-1.49.56-.93,1.12-1.31.38-.37.55-2.61,1.31L718,305.73H717v.37l-3,.75-.37.56-3,.56-4.11,1.49-2.23.37-.38.56-5.78.75h-.55v.37l-2.62.19-3.16.74-6-.56h-2.8l-4.66-1.49-3-.37-5.59-2.61-2.24-1.31L666.52,305l-1.49-.75-2.24-3.36-.56-.37-1.49-2.61-.18-1.12L660,296l-1.12-6.34-.75-5.59L658,278l1.11-5.78.56-4.47.56-.37,1.12-5.6,1.31-3.72v-2.24l2.23-4.85,2.24-4.66.93-1.49,1.87-4.1.74-.38L671,239l2.79-4.66,2.43-3.73,3.91-3.92,2.24-1.86,2-2.61,2.24-1.86,1.3-1.68,1.12-.19,4.85-3.17.93-.18.75-1.12,2.6-1.12L704,211l5.78-.37Zm1.3,18.64h-5l-2.42,1.12-1.12.19-3.92,3.54-1.12.19L695.42,239l-1.87,3.36-.56.37-2.79,4.47-.93,2.8h-.38v.74h-.56l-.18,1.31-2.24,5.59,1.3,2.05,1.12.56H695l2.24-.18,1.12-.94,1.49-.37,1.68-1.3,2.24-.94.37-.55,1.12-.19,4.1-4.48,2.42-5,2.61-5.41,1.12-3,.75-5.59-2.24-2.43Z"/><path class="cls-3" d="M800,300.14l1.3.56,5.23-2.8,5.21-3.73,1.31-.74.74-1.31,1.5-.56,2.05-2.23,4.47-3.55,7.83-8.95,3.73-4.66,2.8-3.91.37-1.12.93-1.12.19-1.12,1.86-2,1.68-2.61,2-2.05,1.12-.18,2.8.74,1.11.75,2.06,2.42.55,3-.37,1.49L848.67,269,847,270.87l-.93,3.17-1.12,1.12-.56,1.49H844l-.19.74-1.12.94-.56,1.12-1.86,1.67-3.36,4.29-3.73,4.47L828.72,294l-4.29,4.47L820,301.82l-2.8,1.49L812.69,307l-2.24,1.49-1.87.74-5,3-5.22,2.79-1.3.38-1.31.93-1.49.37L792,318.41l-2,2.24-1.49,4.1-2.42,5-1.49,3.92-1.12,2.42-.19,1.31-.93,1.11-.37,1.31-.94,1.3-.56,1.87-1.49,1.86-.56,1.31-.74.37-3.17,4.85-3.73,4.66-2.42,2.8h-.94l-.37.93-1.3.18-1.12,1.12-5,2.43-2.79,1.3-5.41.75-3.36.18-3-.37-5.78-1.68-1.3-.37-2.61-1.68-4.11-4.1-1.67-2.8-.93-3-.56-6,.18-1.67.38-.38.74-2.79,3-4.85,1.5-1.49.18-.75,4.48-3.91,1.12-1.31.74-.18,1.49-1.87,5.22-2.61,5.22-2.79,5.78-2.24,1.31-.56.93-.93,5.41-2.24,2.42-1.3,2.24-2.06,1.86-2.42.19-1.49L772,307l-1.3-.94-4.47,2.06-2.43,1.3-1.49.37-.56.75-5.41.93H753l-6.15-.93-1.31-.75v-.37h-.93l-2-2h-.93l-2.43-4.66h-.56l-2-5.59.56-2.24-.56-6.34,1.12-6,.19-1.49.37-.37v-1.3l1.31-2.24.55-2,.56-.56.94-4.85.55-.37,1.87-5.41,2-5.59,2.61-5.41,2.24-5.78,2-5.59,2.24-5.22v-.75h.37l.18-1.12,1.12-1.11v-.75l.56-.56,1.68-5.59,1.86-5.59h.56V220H762l.74-2.79.56-.19v-.75l2.43-3,4.84-1.12,7.46.19,3.17.37,2.24.75,2.61,2.24v1.49l-2,4.1L783,225l-.93,1.3-.74,2.61-.75.93v.75l-.56.37-1.3,3.92-.94,1.12-.18,2.05-2.24,5.22-2.24,5.4-4.47,10.44-.37,1.5-1.5,2.6L765,269v.75l-.93.93-.19,1.49-1.12,2.43-.93.93-1.68,6L759,284.29l-.74,6.34.19,1.49,1.49,2.24,2.42.93,6.15-1.68.38-.74,1.86-.93,3.73-4.66,2.61-2.24.56-1.31,2.24-2.05.18-.93,3.36-5,.56-1.31.74-.37,1.12-2.8,1.87-2.24.37-1.3.93-.93V266l1.68-2.23.18-1.87,1.5-2.61.93-.93.18-2.05L795,253h.38l.56-2.24,1.12-1.11,1.11-2.43,1.5-5.59,2.23-5.59.56-2.61,2.43-5.78,2.61-5.41,1.3-5.22.56-1.3,1.87-2.06,2.6-.93h6l4.66-.74,3.54.56,2.8,1.11,1.31,1.68.18,1.12-.74,2.8L829.09,225l-.37,1.3-.56.37v.75L825.74,233l-2.24,5.41-.37,1.49-.75,1.12-.93,2.8-1.68,2.23-1.12,2.43-.93,4.84-2.05,4.48-2.24,5.59L811,269l-2.43,5.41L806.35,280l-.93,2.8-1.5,2.61-1.67,5.22-.56.75-.75,3-1.86,3.73.37,1.49.37.19Zm-40.64,30-5.6,2.61-4.47,2.05-2.24,1.5-.37.56-1.31.74-2,2.24-.37,1.3-1.12,1.31-.93,2.05.37,2.24.93,1.49,2.06,1.3h3.35l3-1.12,2-1.49,4.1-4.47,3.17-5,2.42-4.67v-1.3l-1.86-1.68-.75.19Z"/><path d="M437.77,327.55h19.58q6.4,0,9.59,3t3.18,8.66q0,5.78-3.47,9t-10.6,3.25h-6.44v14.14H437.77Zm11.84,16.25h2.88c2.27,0,3.87-.39,4.79-1.18a3.84,3.84,0,0,0,1.37-3,4.24,4.24,0,0,0-1.19-3c-.8-.83-2.3-1.25-4.5-1.25h-3.35Z"/><path d="M505.85,359.38H492.47l-1.86,6.29h-12l14.33-38.12h12.84l14.33,38.12H507.75Zm-2.45-8.24-4.21-13.71L495,351.14Z"/><path d="M535,327.55h11.81v38.12H535Z"/><path d="M565.94,327.55h11l14.36,21.09V327.55h11.1v38.12h-11.1L577,344.74v20.93H565.94Z"/><path d="M618.19,327.55H654V337H642v28.71H630.2V337h-12Z"/></svg>