<svg id="Layer_1" data-name="Layer 1" xmlns="http://www.w3.org/2000/svg" viewBox="0 0 125 589"><defs><style>.cls-1{fill:none;stroke:#fff;stroke-linecap:round;stroke-miterlimit:10;stroke-width:11px;}.cls-2{fill:#fff;}</style></defs><rect width="125" height="589"/><rect width="125" height="589"/><path class="cls-1" d="M61.78,416.42c13.65-14.06,19.5-33.92-.5-63.92-28.18-42.26-22.3-90.7,5-118"/><path class="cls-2" d="M59.32,206.93H79.54a2.25,2.25,0,0,1,2.14,1.3,2,2,0,0,1-.51,2.5,3.3,3.3,0,0,1-1.84.62c-8,0-16,0-24,0-.59,0-1.18,0-1.76.05a4.83,4.83,0,0,1-3.72-1.58c-2.25-2.12-4.44-4.3-6.63-6.48-5.73-5.72-11.48-11.43-17.15-17.22a13.32,13.32,0,0,1-2.16-3.28,2.54,2.54,0,0,1,.74-3.12l12.19-12.19,23.85-23.9c2.52-2.52,5.09-5,7.55-7.57a6.24,6.24,0,0,1,9,0c7.3,7.44,14.72,14.77,22.09,22.16a5.91,5.91,0,0,1-.17,8.42c-4.86,4.88-9.75,9.75-14.62,14.63L59.8,206.06c-.2.2-.38.42-.58.63Zm37.43-44.59a16,16,0,0,0-1.15-1.55Q84.88,150,74.13,139.3c-1-1-1.74-1-2.76,0Q56.63,154,41.89,168.76c-.58.58-.56.87,0,1.45q11.54,11.46,23,23c.56.57.83.57,1.38,0Q77.37,182.09,88.49,171c2.41-2.42,4.83-4.82,7.23-7.25A10.68,10.68,0,0,0,96.75,162.34ZM52.8,206.29a8.58,8.58,0,0,0,1.22-.83q3.48-3.45,6.92-6.93c1.61-1.63,1.84-1.16,0-3.05Q53.69,188.22,46.45,181c-2.58-2.58-5.18-5.14-7.75-7.72-.45-.45-.78-.56-1.3,0-2.54,2.61-5.14,5.17-7.71,7.76-1,1-1,1.58,0,2.56,2.41,2.45,4.85,4.88,7.28,7.31q7.2,7.22,14.41,14.41A10.72,10.72,0,0,0,52.8,206.29Z"/></svg>