<svg id="Layer_1" data-name="Layer 1" xmlns="http://www.w3.org/2000/svg" viewBox="0 0 125 589"><defs><style>.cls-1{fill:none;stroke:#000;stroke-linecap:round;stroke-miterlimit:10;stroke-width:20px;}</style></defs><path d="M73.43,462.3c-.59,14.87-1.34,29.74-2,44.61-.51,11.51-1,23-1.51,34.53-.22,4.73-.47,9.48-1,14.18A6,6,0,0,1,62.64,561c-3.92-.19-5.81-2.75-6.08-6-.44-5.28-.71-10.57-1-15.86q-1.08-21.3-2.11-42.61-.7-15-1.34-30c-.43-10.57-1-21.15-1.13-31.73-.16-8.85.13-17.71.22-26.57,0-1.44.63-2.16,2.08-2.77,6.08-2.57,12.19-3,18.32-.5a4.11,4.11,0,0,1,2.26,2.87c.21,6.43.11,12.88.11,19.33C74.18,427.16,73.9,450.59,73.43,462.3Z"/><path d="M83.64,302.21a18.79,18.79,0,0,1,3.35.41,2.92,2.92,0,0,1,1.65,1.47c.13.3-.69,1.17-1.24,1.53-1.65,1.08-3.37,2.06-5.09,3.05-6,3.43-7,8.94-6.43,15.12.43,4.95,1,9.9,1.15,14.86a17,17,0,0,1-1.24,5.75,7.94,7.94,0,0,1-8.6,5.79,64.66,64.66,0,0,1-11.86-1.66c-6.12-1.55-7.75-6.8-8.62-12.17a41.43,41.43,0,0,1-.24-8.91c.37-6.61,3.8-11.75,8.69-15.81C62.83,305.29,74.48,302.13,83.64,302.21Z"/><path d="M51.37,397.89C52.22,385.05,53,372.2,54,359.36c.28-3.91,3.88-6.79,7.8-7a8.26,8.26,0,0,1,8.49,7.1c.91,10.48,1.75,21,2.59,31.44.25,3.11.16,6.26.69,9.31.4,2.3-.57,1.72-1.76,1.3-5.81-2-11.59-2.44-17.44,0-2.91,1.21-3,1.05-2.85-2.15,0-.49,0-1,0-1.45Z"/><path class="cls-1" d="M67.21,279.1c19.63-20.23,28-48.78-.72-91.92C26,126.41,34.43,56.75,73.68,17.5"/></svg>