<svg id="Layer_1" data-name="Layer 1" xmlns="http://www.w3.org/2000/svg" viewBox="0 0 125 589"><defs><style>.cls-1{stroke:#ccc;stroke-miterlimit:10;opacity:0.08;}</style></defs><path class="cls-1" d="M80.93,363.44c-1.19,29.76-2.68,59.52-4,89.28-1,23-1.93,46.08-3,69.12-.45,9.47-.94,19-2,28.38A12.06,12.06,0,0,1,59.33,561c-7.85-.37-11.64-5.5-12.18-12-.88-10.57-1.42-21.16-2-31.75Q43,474.65,41,432q-1.44-30-2.69-60.1c-.87-21.17-1.91-42.33-2.27-63.51-.3-17.72.28-35.45.45-53.18,0-2.88,1.26-4.32,4.15-5.54,12.18-5.16,24.4-6,36.68-1,2,.82,4.47,3.73,4.53,5.74.41,12.88.21,25.79.21,38.69C82.42,293.09,81.86,340,80.93,363.44Z"/><path class="cls-1" d="M101.66,43a37.37,37.37,0,0,1,6.69.82,5.81,5.81,0,0,1,3.32,2.94c.24.6-1.39,2.33-2.49,3.06C105.87,52,102.43,54,99,55.93,87.08,62.79,85.06,73.82,86.12,86.2c.85,9.9,2,19.81,2.3,29.73.13,3.81-1.23,7.8-2.48,11.51-2.73,8.12-8.87,12.12-17.2,11.59A129.51,129.51,0,0,1,45,135.71c-12.24-3.1-15.51-13.6-17.25-24.36a83,83,0,0,1-.49-17.84C28,80.3,34.87,70,44.65,61.88,60,49.16,83.32,42.83,101.66,43Z"/><path class="cls-1" d="M36.78,234.51c1.7-25.71,3.29-51.43,5.17-77.13.57-7.81,7.76-13.58,15.62-14,9.64-.49,16.4,7.55,17,14.21,1.84,21,3.51,41.95,5.2,62.93.5,6.22.32,12.53,1.38,18.63.8,4.6-1.14,3.44-3.53,2.6-11.63-4.06-23.19-4.88-34.9,0-5.83,2.41-6,2.1-5.72-4.32,0-1,0-1.93,0-2.89Z"/></svg>